<svg width="16" height="16" viewBox="0 0 16 16" fill="none" xmlns="http://www.w3.org/2000/svg">
<g clip-path="url(#clip0_1108_124)">
<path d="M2.38274 9.68045C2.65416 9.62581 3.1608 9.53472 3.90266 9.40721C4.02932 8.62391 4.12884 7.98634 4.20121 7.4945C3.33269 7.34877 2.46417 7.15749 1.59564 6.92068C1.45089 6.86603 1.37851 6.77495 1.37851 6.64744C1.37851 6.42884 1.55946 6.14649 1.92134 5.80038C2.28322 5.43605 2.69939 5.13548 3.16984 4.89867C3.65839 4.66186 4.05646 4.57078 4.36406 4.62543C4.38216 4.42505 4.3912 4.12448 4.3912 3.72372C4.3912 3.32296 4.38216 3.02239 4.36406 2.82201C4.36406 2.54877 4.51786 2.2573 4.82547 1.94763C5.13307 1.63795 5.504 1.38292 5.93826 1.18254C6.37252 0.963947 6.7525 0.854649 7.0782 0.854649C7.47627 0.854649 7.68436 1.0186 7.70245 1.34649C7.73864 2.03871 7.75673 2.56698 7.75673 2.93131C7.75673 3.65996 7.72959 4.39772 7.67531 5.14459C8.41717 5.18102 9.10475 5.14459 9.73805 5.03529C10.0999 3.86945 10.3985 2.99507 10.6337 2.41214C10.7604 2.04782 11.1494 1.6926 11.8008 1.34649C12.4703 0.982162 13.0312 0.799999 13.4836 0.799999C13.8093 0.799999 13.9721 0.927514 13.9721 1.18254C13.9721 1.21898 13.954 1.31006 13.9178 1.45579C13.574 2.31195 13.2755 3.22277 13.0222 4.18823C13.1669 4.13359 13.4655 4.00607 13.9178 3.80569C14.3159 3.64174 14.6506 3.55977 14.9221 3.55977C15.3382 3.55977 15.5825 3.73283 15.6549 4.07894C15.7453 4.40683 15.5915 4.74383 15.1935 5.08994C14.7954 5.41784 14.3883 5.68197 13.9721 5.88235C13.2664 6.19203 12.7869 6.39241 12.5336 6.48349C12.3889 7.55825 12.2893 8.5055 12.2351 9.32524C12.9588 9.45275 13.6916 9.6167 14.4335 9.81708C14.7592 9.88994 14.9221 10.0539 14.9221 10.3089C14.9221 10.5457 14.7683 10.8281 14.4606 11.156C14.153 11.4839 13.7821 11.7662 13.3479 12.003C12.9317 12.2398 12.5698 12.3583 12.2622 12.3583C12.2803 12.5404 12.2893 12.8046 12.2893 13.1507C12.3255 13.4421 12.1898 13.7518 11.8822 14.0797C11.5927 14.3894 11.2218 14.6535 10.7694 14.8721C10.3352 15.0907 9.94614 15.2 9.60234 15.2C9.13189 15.2 8.88762 15.0087 8.86953 14.6262C8.79715 13.3146 8.76096 12.3491 8.76096 11.7298L8.001 11.6751C7.63912 11.6387 7.13248 11.6023 6.48109 11.5658L5.91112 13.2873C5.76637 13.6334 5.35925 13.9886 4.68976 14.3529C4.03837 14.6991 3.48649 14.8721 3.03414 14.8721C2.69035 14.8721 2.51845 14.7446 2.51845 14.4896C2.51845 14.362 2.53654 14.2619 2.57273 14.189C2.86224 13.4786 3.12461 12.6497 3.35983 11.7025C2.27418 11.8664 1.52327 11.9848 1.1071 12.0577C1.03472 12.0759 0.944251 12.085 0.835686 12.085C0.672837 12.085 0.546178 12.0395 0.455706 11.9484C0.365235 11.8573 0.32 11.7389 0.32 11.5932C0.32 11.4474 0.347141 11.3108 0.401424 11.1833C0.509989 10.8736 0.781403 10.5639 1.21566 10.2543C1.64993 9.94459 2.03895 9.75332 2.38274 9.68045ZM7.37675 7.60379C7.32247 8.0592 7.24105 8.54193 7.13248 9.05199C7.54865 9.03377 8.15481 9.02467 8.95095 9.02467L9.19522 7.41252C8.68859 7.5036 8.08243 7.56736 7.37675 7.60379Z" fill="black"/>
</g>
<defs>
<clipPath id="clip0_1108_124">
<rect width="16" height="16" fill="white"/>
</clipPath>
</defs>
</svg>
